<svg width="42" height="43" viewBox="0 0 42 43" fill="none" xmlns="http://www.w3.org/2000/svg">
<g filter="url(#filter0_i_822_781)">
<path d="M30.1574 1H11.8551C6.41225 1 2 5.41082 2 10.8518V29.1482C2 34.5892 6.41225 39 11.8551 39H30.1574C35.6002 39 40.0124 34.5892 40.0124 29.1482V10.8518C40.0124 5.41082 35.6002 1 30.1574 1Z" fill="#4C4C4C" fill-opacity="0.2"/>
<path d="M30.1582 1.09375H11.8559C6.46495 1.09375 2.09473 5.46254 2.09473 10.8517V29.148C2.09473 34.5372 6.46495 38.906 11.8559 38.906H30.1582C35.5491 38.906 39.9194 34.5372 39.9194 29.148V10.8517C39.9194 5.46254 35.5491 1.09375 30.1582 1.09375Z" stroke="#1B1B1B" stroke-width="0.620803"/>
<g filter="url(#filter1_di_822_781)">
<path d="M30.093 3.58008H11.9194C7.86654 3.58008 4.58105 6.86452 4.58105 10.9161V29.0837C4.58105 33.1352 7.86654 36.4197 11.9194 36.4197H30.093C34.1459 36.4197 37.4314 33.1352 37.4314 29.0837V10.9161C37.4314 6.86452 34.1459 3.58008 30.093 3.58008Z" fill="black"/>
<path d="M30.0928 3.65039H11.9193C7.90533 3.65039 4.65137 6.90331 4.65137 10.916V29.0836C4.65137 33.0962 7.90533 36.3492 11.9193 36.3492H30.0928C34.1068 36.3492 37.3608 33.0962 37.3608 29.0836V10.916C37.3608 6.90331 34.1068 3.65039 30.0928 3.65039Z" stroke="url(#paint0_linear_822_781)" stroke-width="0.465602"/>
<path fill-rule="evenodd" clip-rule="evenodd" d="M28.4975 18.9869C27.0529 18.3719 25.7394 17.4861 24.6278 16.3773C23.0799 14.8262 21.9755 12.8889 21.4295 10.7667C21.4055 10.6724 21.3508 10.5888 21.2741 10.5291C21.1973 10.4694 21.1028 10.437 21.0055 10.437C20.9083 10.437 20.8138 10.4694 20.737 10.5291C20.6603 10.5888 20.6056 10.6724 20.5816 10.7667C20.0345 12.8886 18.9299 14.8257 17.3824 16.3773C16.2708 17.486 14.9573 18.3718 13.5127 18.9869C12.9475 19.2304 12.3666 19.426 11.7718 19.5765C11.677 19.5998 11.5927 19.6542 11.5325 19.731C11.4722 19.8079 11.4395 19.9027 11.4395 20.0004C11.4395 20.098 11.4722 20.1929 11.5325 20.2697C11.5927 20.3466 11.677 20.401 11.7718 20.4243C12.3666 20.5739 12.9458 20.7695 13.5127 21.013C14.9573 21.628 16.2709 22.5138 17.3824 23.6227C18.9308 25.1739 20.0355 27.1115 20.5816 29.2341C20.6049 29.3289 20.6594 29.4132 20.7362 29.4735C20.8131 29.5337 20.9079 29.5665 21.0055 29.5665C21.1032 29.5665 21.198 29.5337 21.2749 29.4735C21.3517 29.4132 21.4062 29.3289 21.4295 29.2341C21.579 28.6384 21.7747 28.0593 22.0182 27.4923C22.6331 26.0477 23.5189 24.7342 24.6278 23.6227C26.1792 22.0746 28.1168 20.9703 30.2393 20.4243C30.3335 20.4004 30.4171 20.3457 30.4768 20.2689C30.5365 20.1921 30.5689 20.0976 30.5689 20.0004C30.5689 19.9031 30.5365 19.8087 30.4768 19.7319C30.4171 19.6551 30.3335 19.6004 30.2393 19.5765C29.6439 19.4267 29.0614 19.2295 28.4975 18.9869Z" fill="white"/>
</g>
</g>
<defs>
<filter id="filter0_i_822_781" x="1.78418" y="0.783203" width="38.4453" height="38.4331" filterUnits="userSpaceOnUse" color-interpolation-filters="sRGB">
<feFlood flood-opacity="0" result="BackgroundImageFix"/>
<feBlend mode="normal" in="SourceGraphic" in2="BackgroundImageFix" result="shape"/>
<feColorMatrix in="SourceAlpha" type="matrix" values="0 0 0 0 0 0 0 0 0 0 0 0 0 0 0 0 0 0 127 0" result="hardAlpha"/>
<feOffset/>
<feGaussianBlur stdDeviation="7.7556"/>
<feComposite in2="hardAlpha" operator="arithmetic" k2="-1" k3="1"/>
<feColorMatrix type="matrix" values="0 0 0 0 0 0 0 0 0 0 0 0 0 0 0 0 0 0 0.25 0"/>
<feBlend mode="normal" in2="shape" result="effect1_innerShadow_822_781"/>
</filter>
<filter id="filter1_di_822_781" x="0.72369" y="1.93938" width="40.5653" height="40.5551" filterUnits="userSpaceOnUse" color-interpolation-filters="sRGB">
<feFlood flood-opacity="0" result="BackgroundImageFix"/>
<feColorMatrix in="SourceAlpha" type="matrix" values="0 0 0 0 0 0 0 0 0 0 0 0 0 0 0 0 0 0 127 0" result="hardAlpha"/>
<feOffset dy="2.21715"/>
<feGaussianBlur stdDeviation="1.84763"/>
<feComposite in2="hardAlpha" operator="out"/>
<feColorMatrix type="matrix" values="0 0 0 0 1 0 0 0 0 0.400922 0 0 0 0 0 0 0 0 0.4 0"/>
<feBlend mode="normal" in2="BackgroundImageFix" result="effect1_dropShadow_822_781"/>
<feBlend mode="normal" in="SourceGraphic" in2="effect1_dropShadow_822_781" result="shape"/>
<feColorMatrix in="SourceAlpha" type="matrix" values="0 0 0 0 0 0 0 0 0 0 0 0 0 0 0 0 0 0 127 0" result="hardAlpha"/>
<feOffset/>
<feGaussianBlur stdDeviation="1.55127"/>
<feComposite in2="hardAlpha" operator="arithmetic" k2="-1" k3="1"/>
<feColorMatrix type="matrix" values="0 0 0 0 0 0 0 0 0 0 0 0 0 0 0 0 0 0 0.6 0"/>
<feBlend mode="normal" in2="shape" result="effect2_innerShadow_822_781"/>
</filter>
<linearGradient id="paint0_linear_822_781" x1="21.0057" y1="3.57998" x2="21.0057" y2="36.4196" gradientUnits="userSpaceOnUse">
<stop stop-color="#2C2B2B"/>
<stop offset="0.5"/>
<stop offset="1" stop-color="#373434"/>
</linearGradient>
</defs>
</svg>
