<svg width="51" height="60" viewBox="0 0 51 60" fill="none" xmlns="http://www.w3.org/2000/svg">
<path d="M27.275 0.734469C27.0428 0.501652 26.7669 0.316938 26.4632 0.190905C26.1594 0.0648731 25.8338 0 25.505 0C25.1762 0 24.8506 0.0648731 24.5468 0.190905C24.2431 0.316938 23.9672 0.501652 23.735 0.734469C17.52 6.93947 10.65 9.99947 3 9.99947C2.33696 9.99947 1.70107 10.2629 1.23223 10.7317C0.763393 11.2005 0.5 11.8364 0.5 12.4995V27.5045C0.5 43.5995 8.705 54.5395 24.71 59.8695C25.2228 60.0403 25.7772 60.0403 26.29 59.8695C42.29 54.5395 50.5 43.5995 50.5 27.5045V12.4995C50.5 11.8364 50.2366 11.2005 49.7678 10.7317C49.2989 10.2629 48.663 9.99947 48 9.99947C40.345 9.99947 33.475 6.94947 27.275 0.734469ZM5.5 14.8995C12.9 14.3395 19.57 11.2695 25.5 5.93947C31.425 11.2695 38.1 14.3395 45.5 14.8995V27.4995C45.5 34.6695 43.685 40.3245 40.395 44.7195C37.205 48.9795 32.35 52.4345 25.5 54.8545C18.65 52.4395 13.795 48.9795 10.605 44.7195C7.315 40.3245 5.5 34.6745 5.5 27.5045V14.8995ZM28 17.4945C28 16.8314 27.7366 16.1955 27.2678 15.7267C26.7989 15.2579 26.163 14.9945 25.5 14.9945C24.837 14.9945 24.2011 15.2579 23.7322 15.7267C23.2634 16.1955 23 16.8314 23 17.4945V32.4945C23 33.1575 23.2634 33.7934 23.7322 34.2622C24.2011 34.7311 24.837 34.9945 25.5 34.9945C26.163 34.9945 26.7989 34.7311 27.2678 34.2622C27.7366 33.7934 28 33.1575 28 32.4945V17.4945ZM29.25 43.7445C29.25 44.739 28.8549 45.6929 28.1516 46.3961C27.4484 47.0994 26.4946 47.4945 25.5 47.4945C24.5054 47.4945 23.5516 47.0994 22.8483 46.3961C22.1451 45.6929 21.75 44.739 21.75 43.7445C21.75 42.7499 22.1451 41.7961 22.8483 41.0928C23.5516 40.3896 24.5054 39.9945 25.5 39.9945C26.4946 39.9945 27.4484 40.3896 28.1516 41.0928C28.8549 41.7961 29.25 42.7499 29.25 43.7445Z" fill="#7C3BED"/>
</svg>
